{
	"asset":{
		"generator":"Khronos glTF Blender I/O v3.5.30",
		"version":"2.0"
	},
	"scene":0,
	"scenes":[
		{
			"name":"Scene",
			"nodes":[
				51
			]
		}
	],
	"nodes":[
		{
			"name":"Structural_X_0_4",
			"translation":[
				0,
				1.5000004768371582,
				0
			]
		},
		{
			"name":"Structural_Y_4_4",
			"rotation":[
				1.615587037596135e-27,
				-7.105427357601002e-15,
				-6.1089388500315154e-27,
				1
			],
			"translation":[
				4.76837158203125e-07,
				1,
				2.5579538487363607e-13
			]
		},
		{
			"children":[
				1
			],
			"name":"Structural_Y_3_4",
			"rotation":[
				1.615587037596135e-27,
				-7.105427357601002e-15,
				-6.1089388500315154e-27,
				1
			],
			"translation":[
				4.76837158203125e-07,
				1,
				2.5579538487363607e-13
			]
		},
		{
			"children":[
				2
			],
			"name":"Structural_Y_2_4",
			"rotation":[
				1.6155869412996377e-27,
				-7.105427357601002e-15,
				-6.3108872417680944e-27,
				1
			],
			"translation":[
				4.76837158203125e-07,
				1,
				2.5579538487363607e-13
			]
		},
		{
			"children":[
				3
			],
			"name":"Structural_Y_1_4",
			"rotation":[
				-1.4210854715202004e-14,
				-7.105427357601002e-15,
				5.533905344845812e-21,
				1
			],
			"translation":[
				4.76837158203125e-07,
				1,
				2.2737367544323206e-13
			]
		},
		{
			"children":[
				4
			],
			"name":"Structural_Y_0_4",
			"rotation":[
				2.795736691041384e-07,
				4.216097693188203e-09,
				0.7071067690849304,
				0.7071067690849304
			],
			"translation":[
				0,
				1.5000004768371582,
				0
			]
		},
		{
			"children":[
				0,
				5
			],
			"name":"Structural_X_0_3",
			"translation":[
				0,
				1.500000238418579,
				0
			]
		},
		{
			"name":"Structural_Y_4_3",
			"rotation":[
				1.615587037596135e-27,
				-7.105427357601002e-15,
				-6.1089388500315154e-27,
				1
			],
			"translation":[
				0,
				1,
				2.842170943040401e-14
			]
		},
		{
			"children":[
				7
			],
			"name":"Structural_Y_3_3",
			"rotation":[
				1.615587037596135e-27,
				-7.105427357601002e-15,
				-6.1089388500315154e-27,
				1
			],
			"translation":[
				0,
				1,
				2.842170943040401e-14
			]
		},
		{
			"children":[
				8
			],
			"name":"Structural_Y_2_3",
			"rotation":[
				1.6155869412996377e-27,
				-7.105427357601002e-15,
				-6.3108872417680944e-27,
				1
			],
			"translation":[
				0,
				1,
				2.842170943040401e-14
			]
		},
		{
			"children":[
				9
			],
			"name":"Structural_Y_1_3",
			"rotation":[
				-1.4210854715202004e-14,
				-7.105427357601002e-15,
				5.533905344845812e-21,
				1
			],
			"translation":[
				0,
				1,
				0
			]
		},
		{
			"children":[
				10
			],
			"name":"Structural_Y_0_3",
			"rotation":[
				2.795736691041384e-07,
				4.216097693188203e-09,
				0.7071067690849304,
				0.7071067690849304
			],
			"translation":[
				0,
				1.500000238418579,
				0
			]
		},
		{
			"children":[
				6,
				11
			],
			"name":"Structural_X_0_2",
			"translation":[
				0,
				1.5000004768371582,
				0
			]
		},
		{
			"name":"Structural_Y_4_2",
			"rotation":[
				1.615587037596135e-27,
				-7.105427357601002e-15,
				-6.1089388500315154e-27,
				1
			],
			"translation":[
				2.384185791015625e-07,
				1,
				1.4210854715202004e-13
			]
		},
		{
			"children":[
				13
			],
			"name":"Structural_Y_3_2",
			"rotation":[
				1.615587037596135e-27,
				-7.105427357601002e-15,
				-6.1089388500315154e-27,
				1
			],
			"translation":[
				2.384185791015625e-07,
				1,
				1.4210854715202004e-13
			]
		},
		{
			"children":[
				14
			],
			"name":"Structural_Y_2_2",
			"rotation":[
				1.6155869412996377e-27,
				-7.105427357601002e-15,
				-6.3108872417680944e-27,
				1
			],
			"translation":[
				2.384185791015625e-07,
				1,
				1.4210854715202004e-13
			]
		},
		{
			"children":[
				15
			],
			"name":"Structural_Y_1_2",
			"rotation":[
				-1.4210854715202004e-14,
				-7.105427357601002e-15,
				5.533905344845812e-21,
				1
			],
			"translation":[
				2.384185791015625e-07,
				1,
				1.1368683772161603e-13
			]
		},
		{
			"children":[
				16
			],
			"name":"Structural_Y_0_2",
			"rotation":[
				2.795736691041384e-07,
				4.216097693188203e-09,
				0.7071067690849304,
				0.7071067690849304
			],
			"translation":[
				0,
				1.5000004768371582,
				0
			]
		},
		{
			"children":[
				12,
				17
			],
			"name":"Structural_X_0_1",
			"rotation":[
				0,
				-1.4210854715202004e-14,
				0,
				1
			],
			"translation":[
				0,
				1.5,
				0
			]
		},
		{
			"name":"Structural_Y_4_1",
			"rotation":[
				-7.864162243849834e-35,
				-7.105427357601002e-15,
				-6.1089388500315154e-27,
				1
			],
			"translation":[
				0,
				1,
				2.842170943040401e-14
			]
		},
		{
			"children":[
				19
			],
			"name":"Structural_Y_3_1",
			"rotation":[
				-7.864162243849834e-35,
				-7.105427357601002e-15,
				-6.1089388500315154e-27,
				1
			],
			"translation":[
				0,
				1,
				2.842170943040401e-14
			]
		},
		{
			"children":[
				20
			],
			"name":"Structural_Y_2_1",
			"rotation":[
				-1.5728323339755966e-34,
				-7.105427357601002e-15,
				-6.3108872417680944e-27,
				1
			],
			"translation":[
				0,
				1,
				2.842170943040401e-14
			]
		},
		{
			"children":[
				21
			],
			"name":"Structural_Y_1_1",
			"rotation":[
				-1.4210854715202004e-14,
				-7.105427357601002e-15,
				5.533905344845812e-21,
				1
			],
			"translation":[
				0,
				1,
				0
			]
		},
		{
			"children":[
				22
			],
			"name":"Structural_Y_0_1",
			"rotation":[
				2.7957364068242896e-07,
				4.216087479136377e-09,
				0.7071067690849304,
				0.7071067690849304
			],
			"translation":[
				0,
				1.5,
				0
			]
		},
		{
			"children":[
				18,
				23
			],
			"name":"Structural_X_0_0",
			"rotation":[
				1.4189485852966754e-07,
				-1.4189485852966754e-07,
				0.7071067690849304,
				0.7071067690849304
			],
			"scale":[
				1,
				0.9999999403953552,
				1
			]
		},
		{
			"name":"Structural_Y_4_0",
			"translation":[
				0,
				1,
				0
			]
		},
		{
			"name":"Structural_X_4_4",
			"translation":[
				0,
				1.5,
				0
			]
		},
		{
			"children":[
				26
			],
			"name":"Structural_X_4_3",
			"translation":[
				0,
				1.5,
				0
			]
		},
		{
			"children":[
				27
			],
			"name":"Structural_X_4_2",
			"translation":[
				0,
				1.5,
				0
			]
		},
		{
			"children":[
				28
			],
			"name":"Structural_X_4_1",
			"translation":[
				0,
				1.5,
				0
			]
		},
		{
			"children":[
				29
			],
			"name":"Structural_X_4_0",
			"rotation":[
				2.6692537957728746e-08,
				-2.6692537957728746e-08,
				0.7071067690849304,
				0.7071067690849304
			],
			"translation":[
				0,
				1,
				0
			]
		},
		{
			"children":[
				25,
				30
			],
			"name":"Structural_Y_3_0",
			"translation":[
				0,
				1,
				0
			]
		},
		{
			"name":"Structural_X_3_4",
			"translation":[
				0,
				1.5,
				0
			]
		},
		{
			"children":[
				32
			],
			"name":"Structural_X_3_3",
			"translation":[
				0,
				1.5,
				0
			]
		},
		{
			"children":[
				33
			],
			"name":"Structural_X_3_2",
			"translation":[
				0,
				1.5,
				0
			]
		},
		{
			"children":[
				34
			],
			"name":"Structural_X_3_1",
			"translation":[
				0,
				1.5,
				0
			]
		},
		{
			"children":[
				35
			],
			"name":"Structural_X_3_0",
			"rotation":[
				2.6692537957728746e-08,
				-2.6692537957728746e-08,
				0.7071067690849304,
				0.7071067690849304
			],
			"translation":[
				0,
				1,
				0
			]
		},
		{
			"children":[
				31,
				36
			],
			"name":"Structural_Y_2_0",
			"translation":[
				0,
				1,
				0
			]
		},
		{
			"name":"Structural_X_2_4",
			"translation":[
				0,
				1.5,
				0
			]
		},
		{
			"children":[
				38
			],
			"name":"Structural_X_2_3",
			"translation":[
				0,
				1.5,
				0
			]
		},
		{
			"children":[
				39
			],
			"name":"Structural_X_2_2",
			"translation":[
				0,
				1.5,
				0
			]
		},
		{
			"children":[
				40
			],
			"name":"Structural_X_2_1",
			"translation":[
				0,
				1.5,
				0
			]
		},
		{
			"children":[
				41
			],
			"name":"Structural_X_2_0",
			"rotation":[
				2.6692537957728746e-08,
				-2.6692537957728746e-08,
				0.7071067690849304,
				0.7071067690849304
			],
			"translation":[
				0,
				1,
				0
			]
		},
		{
			"children":[
				37,
				42
			],
			"name":"Structural_Y_1_0",
			"translation":[
				0,
				1,
				0
			]
		},
		{
			"name":"Structural_X_1_4",
			"translation":[
				0,
				1.5,
				0
			]
		},
		{
			"children":[
				44
			],
			"name":"Structural_X_1_3",
			"translation":[
				0,
				1.5,
				0
			]
		},
		{
			"children":[
				45
			],
			"name":"Structural_X_1_2",
			"translation":[
				0,
				1.5,
				0
			]
		},
		{
			"children":[
				46
			],
			"name":"Structural_X_1_1",
			"translation":[
				0,
				1.5,
				0
			]
		},
		{
			"children":[
				47
			],
			"name":"Structural_X_1_0",
			"rotation":[
				2.6692537957728746e-08,
				-2.6692537957728746e-08,
				0.7071067690849304,
				0.7071067690849304
			],
			"translation":[
				0,
				1,
				0
			]
		},
		{
			"children":[
				43,
				48
			],
			"name":"Structural_Y_0_0",
			"rotation":[
				1,
				0,
				0,
				0
			]
		},
		{
			"mesh":0,
			"name":"Cube",
			"skin":0
		},
		{
			"children":[
				50,
				24,
				49
			],
			"name":"\u30a2\u30fc\u30de\u30c1\u30e5\u30a2"
		}
	],
	"materials":[
		{
			"doubleSided":true,
			"name":"Material",
			"pbrMetallicRoughness":{
				"baseColorTexture":{
					"index":0
				},
				"metallicFactor":0,
				"roughnessFactor":0.5
			}
		}
	],
	"meshes":[
		{
			"name":"Cube",
			"primitives":[
				{
					"attributes":{
						"COLOR_0":0,
						"POSITION":1,
						"TEXCOORD_0":2,
						"NORMAL":3,
						"JOINTS_0":4,
						"WEIGHTS_0":5
					},
					"indices":6,
					"material":0
				}
			]
		}
	],
	"textures":[
		{
			"sampler":0,
			"source":0
		}
	],
	"images":[
		{
			"mimeType":"image/png",
			"name":"Flag",
			"uri":"Flag.png"
		}
	],
	"skins":[
		{
			"inverseBindMatrices":7,
			"joints":[
				24,
				18,
				12,
				6,
				0,
				5,
				4,
				3,
				2,
				1,
				11,
				10,
				9,
				8,
				7,
				17,
				16,
				15,
				14,
				13,
				23,
				22,
				21,
				20,
				19,
				49,
				43,
				37,
				31,
				25,
				30,
				29,
				28,
				27,
				26,
				36,
				35,
				34,
				33,
				32,
				42,
				41,
				40,
				39,
				38,
				48,
				47,
				46,
				45,
				44
			],
			"name":"\u30a2\u30fc\u30de\u30c1\u30e5\u30a2"
		}
	],
	"accessors":[
		{
			"bufferView":0,
			"componentType":5123,
			"count":150,
			"normalized":true,
			"type":"VEC4"
		},
		{
			"bufferView":1,
			"componentType":5126,
			"count":150,
			"max":[
				0,
				0,
				0.10000002384185791
			],
			"min":[
				-6,
				-4,
				-0.10000002384185791
			],
			"type":"VEC3"
		},
		{
			"bufferView":2,
			"componentType":5126,
			"count":150,
			"type":"VEC2"
		},
		{
			"bufferView":3,
			"componentType":5126,
			"count":150,
			"type":"VEC3"
		},
		{
			"bufferView":4,
			"componentType":5121,
			"count":150,
			"type":"VEC4"
		},
		{
			"bufferView":5,
			"componentType":5126,
			"count":150,
			"type":"VEC4"
		},
		{
			"bufferView":6,
			"componentType":5123,
			"count":576,
			"type":"SCALAR"
		},
		{
			"bufferView":7,
			"componentType":5126,
			"count":50,
			"type":"MAT4"
		}
	],
	"bufferViews":[
		{
			"buffer":0,
			"byteLength":1200,
			"byteOffset":0,
			"target":34962
		},
		{
			"buffer":0,
			"byteLength":1800,
			"byteOffset":1200,
			"target":34962
		},
		{
			"buffer":0,
			"byteLength":1200,
			"byteOffset":3000,
			"target":34962
		},
		{
			"buffer":0,
			"byteLength":1800,
			"byteOffset":4200,
			"target":34962
		},
		{
			"buffer":0,
			"byteLength":600,
			"byteOffset":6000,
			"target":34962
		},
		{
			"buffer":0,
			"byteLength":2400,
			"byteOffset":6600,
			"target":34962
		},
		{
			"buffer":0,
			"byteLength":1152,
			"byteOffset":9000,
			"target":34963
		},
		{
			"buffer":0,
			"byteLength":3200,
			"byteOffset":10152
		}
	],
	"samplers":[
		{
			"magFilter":9729,
			"minFilter":9987
		}
	],
	"buffers":[
		{
			"byteLength":13352,
			"uri":"Flag.bin"
		}
	]
}
