# Blender v3.5.0 OBJ File: ''
# www.blender.org
mtllib Pillar.mtl
o Cube.001
v -0.405011 0.000000 0.606141
v -0.606141 0.000000 0.405011
v -0.673508 0.000000 0.278976
v 0.158023 6.000000 -0.794436
v 0.309974 -0.000000 -0.748342
v 0.158023 -0.000000 -0.794436
v 0.450012 6.000000 -0.673490
v 0.572757 -0.000000 -0.572757
v 0.450012 -0.000000 -0.673490
v 0.673490 6.000000 -0.450012
v 0.748342 -0.000000 -0.309974
v 0.673490 -0.000000 -0.450012
v 0.794436 6.000000 -0.158023
v 0.810000 0.000000 0.000000
v 0.794436 -0.000000 -0.158023
v 0.794436 6.000000 0.158023
v 0.748342 0.000000 0.309974
v 0.794436 0.000000 0.158023
v 0.673490 6.000000 0.450012
v 0.572757 0.000000 0.572757
v 0.673490 0.000000 0.450012
v 0.450012 6.000000 0.673490
v 0.309974 0.000000 0.748342
v 0.450012 0.000000 0.673490
v 0.158023 6.000000 0.794436
v 0.000000 0.000000 0.810000
v 0.158023 0.000000 0.794436
v -0.158023 6.000000 0.794436
v -0.309974 0.000000 0.748342
v -0.158023 0.000000 0.794436
v -0.450012 6.000000 0.673490
v -0.572757 0.000000 0.572757
v -0.450012 0.000000 0.673490
v -0.673490 6.000000 0.450012
v -0.748342 0.000000 0.309974
v -0.673490 0.000000 0.450012
v -0.794436 6.000000 0.158023
v -0.810000 0.000000 0.000000
v -0.794436 0.000000 0.158023
v -0.794436 6.000000 -0.158023
v -0.748342 -0.000000 -0.309974
v -0.794436 -0.000000 -0.158023
v -0.673490 6.000000 -0.450012
v -0.572757 -0.000000 -0.572757
v -0.673490 -0.000000 -0.450012
v -0.450012 6.000000 -0.673490
v -0.309974 -0.000000 -0.748342
v -0.450012 -0.000000 -0.673490
v -0.158023 6.000000 -0.794436
v 0.000000 -0.000000 -0.810000
v -0.158023 -0.000000 -0.794436
v 0.000000 6.000000 -0.729000
v 0.142221 -0.000000 -0.714993
v 0.000000 -0.000000 -0.729000
v 0.278976 6.000000 -0.673508
v 0.405011 -0.000000 -0.606141
v 0.278976 -0.000000 -0.673508
v 0.515481 6.000000 -0.515481
v 0.606141 -0.000000 -0.405011
v 0.515481 -0.000000 -0.515481
v 0.673508 6.000000 -0.278976
v 0.714993 -0.000000 -0.142221
v 0.673508 -0.000000 -0.278976
v 0.729000 6.000000 -0.000000
v 0.714993 0.000000 0.142221
v 0.729000 0.000000 0.000000
v 0.673508 6.000000 0.278976
v 0.606141 0.000000 0.405011
v 0.673508 0.000000 0.278976
v 0.515481 6.000000 0.515481
v 0.405011 0.000000 0.606141
v 0.515481 0.000000 0.515481
v 0.278976 6.000000 0.673508
v 0.142221 0.000000 0.714993
v 0.278976 0.000000 0.673508
v 0.000000 6.000000 0.728999
v -0.142221 0.000000 0.714993
v 0.000000 0.000000 0.729000
v -0.278976 6.000000 0.673508
v -0.278976 0.000000 0.673508
v -0.515481 6.000000 0.515481
v -0.515481 0.000000 0.515481
v -0.673508 6.000000 0.278976
v -0.714993 0.000000 0.142221
v -0.729000 6.000000 -0.000000
v -0.714993 -0.000000 -0.142221
v -0.729000 0.000000 0.000000
v -0.673508 6.000000 -0.278976
v -0.606141 -0.000000 -0.405011
v -0.673508 -0.000000 -0.278976
v -0.515481 6.000000 -0.515481
v -0.405011 -0.000000 -0.606141
v -0.515481 -0.000000 -0.515481
v -0.278976 6.000000 -0.673508
v -0.142221 -0.000000 -0.714993
v -0.278976 -0.000000 -0.673508
v -0.810000 6.000000 -0.000000
v -0.748342 6.000000 -0.309974
v -0.572757 6.000000 -0.572757
v -0.309974 6.000000 -0.748342
v 0.000000 6.000000 -0.810000
v 0.309974 6.000000 -0.748342
v 0.572757 6.000000 -0.572757
v 0.748342 6.000000 -0.309974
v 0.810000 6.000000 -0.000000
v 0.748342 6.000000 0.309974
v 0.572757 6.000000 0.572757
v 0.309974 6.000000 0.748342
v 0.000000 6.000000 0.810000
v -0.309974 6.000000 0.748342
v -0.572757 6.000000 0.572757
v -0.748342 6.000000 0.309974
v -0.142221 6.000000 0.714993
v 0.142221 6.000000 -0.714993
v 0.405011 6.000000 -0.606141
v 0.606141 6.000000 -0.405011
v 0.714993 6.000000 -0.142221
v 0.714993 6.000000 0.142221
v 0.606141 6.000000 0.405011
v 0.405011 6.000000 0.606140
v 0.142221 6.000000 0.714993
v -0.405011 6.000000 0.606140
v -0.606141 6.000000 0.405011
v -0.714993 6.000000 0.142221
v -0.714993 6.000000 -0.142221
v -0.606141 6.000000 -0.405011
v -0.405011 6.000000 -0.606141
v -0.142221 6.000000 -0.714993
vt 0.777201 0.013208
vt 0.718955 0.475648
vt 0.862410 0.699485
vt 0.167235 0.998159
vt 0.146055 0.001760
vt 0.167235 0.001760
vt 0.206477 0.998159
vt 0.192920 0.001760
vt 0.206477 0.001760
vt 0.170754 0.001760
vt 0.189400 0.998159
vt 0.170755 0.998159
vt 0.118173 0.001760
vt 0.142535 0.998159
vt 0.118173 0.998159
vt 0.001760 0.001760
vt 0.028129 0.998159
vt 0.001760 0.998159
vt 0.090291 0.001760
vt 0.114653 0.998159
vt 0.090291 0.998159
vt 0.031649 0.001760
vt 0.057672 0.998159
vt 0.031649 0.998159
vt 0.783799 0.449233
vt 0.765368 0.251812
vt 0.783799 0.251812
vt 0.687896 0.896907
vt 0.671741 0.699485
vt 0.687896 0.699485
vt 0.603733 0.694515
vt 0.583734 0.497094
vt 0.603733 0.497094
vt 0.323650 0.694515
vt 0.302852 0.497094
vt 0.323650 0.497094
vt 0.076485 0.789918
vt 0.058054 0.592496
vt 0.076485 0.592496
vt 0.879363 0.210629
vt 0.863208 0.013208
vt 0.879363 0.013208
vt 0.464491 0.694515
vt 0.444492 0.497094
vt 0.464491 0.497094
vt 0.370863 0.694515
vt 0.350065 0.497094
vt 0.370863 0.497094
vt 0.782519 0.673070
vt 0.764088 0.475648
vt 0.782519 0.475648
vt 0.563533 0.210629
vt 0.548994 0.013208
vt 0.563533 0.013208
vt 0.826802 0.449233
vt 0.810214 0.251812
vt 0.826802 0.251812
vt 0.738953 0.449233
vt 0.720234 0.251812
vt 0.738953 0.251812
vt 0.254142 0.789918
vt 0.236143 0.592496
vt 0.254142 0.592496
vt 0.693819 0.449233
vt 0.679280 0.251812
vt 0.693819 0.251812
vt 0.825522 0.673070
vt 0.808934 0.475648
vt 0.825522 0.475648
vt 0.705653 0.210629
vt 0.686935 0.013208
vt 0.705653 0.013208
vt 0.165313 0.789918
vt 0.147314 0.592496
vt 0.165313 0.592496
vt 0.612026 0.210629
vt 0.597487 0.013208
vt 0.612026 0.013208
vt 0.793789 0.210629
vt 0.793789 0.013208
vt 0.737673 0.673070
vt 0.737673 0.475648
vt 0.120899 0.789918
vt 0.102900 0.592496
vt 0.120899 0.592496
vt 0.660519 0.210629
vt 0.645980 0.013208
vt 0.660519 0.013208
vt 0.836793 0.210629
vt 0.820205 0.013208
vt 0.836793 0.013208
vt 0.750786 0.210629
vt 0.732068 0.013208
vt 0.750786 0.013208
vt 0.209727 0.789918
vt 0.191728 0.592496
vt 0.209727 0.592496
vt 0.951513 0.210629
vt 0.942649 0.013208
vt 0.951513 0.013208
vt 0.638442 0.210629
vt 0.638442 0.013208
vt 0.941522 0.449233
vt 0.932658 0.251812
vt 0.941522 0.251812
vt 0.604030 0.720930
vt 0.594181 0.918352
vt 0.594181 0.720930
vt 0.313308 0.918352
vt 0.302852 0.720930
vt 0.313308 0.720930
vt 0.640809 0.497094
vt 0.630148 0.694515
vt 0.630148 0.497094
vt 0.835995 0.896907
vt 0.825539 0.699485
vt 0.835995 0.699485
vt 0.422708 0.720930
vt 0.412858 0.918352
vt 0.412858 0.720930
vt 0.936153 0.896907
vt 0.945017 0.699485
vt 0.945017 0.896907
vt 0.541456 0.210629
vt 0.541456 0.013208
vt 0.986792 0.210629
vt 0.977928 0.013208
vt 0.986792 0.013208
vt 0.531501 0.720930
vt 0.521652 0.918352
vt 0.521652 0.720930
vt 0.916234 0.210629
vt 0.905778 0.013208
vt 0.916234 0.013208
vt 0.209997 0.998159
vt 0.223045 0.001760
vt 0.223045 0.998159
vt 0.350179 0.918352
vt 0.339723 0.720930
vt 0.350179 0.720930
vt 0.458972 0.720930
vt 0.449123 0.918352
vt 0.449123 0.720930
vt 0.239295 0.001760
vt 0.239295 0.998240
vt 0.226565 0.998077
vt 0.242814 0.998159
vt 0.254352 0.001760
vt 0.254352 0.998159
vt 0.975522 0.673070
vt 0.966658 0.475648
vt 0.975522 0.475648
vt 0.495237 0.720930
vt 0.485387 0.918352
vt 0.485387 0.720930
vt 0.909737 0.896907
vt 0.899282 0.699485
vt 0.909737 0.699485
vt 0.257872 0.998159
vt 0.266405 0.001760
vt 0.266405 0.998159
vt 0.906243 0.449233
vt 0.895787 0.251812
vt 0.906243 0.251812
vt 0.640294 0.720930
vt 0.630445 0.918352
vt 0.630445 0.720930
vt 0.980296 0.896907
vt 0.971432 0.699485
vt 0.980296 0.699485
vt 0.589949 0.210629
vt 0.589949 0.013208
vt 0.940243 0.673070
vt 0.931379 0.475648
vt 0.940243 0.475648
vt 0.567765 0.720930
vt 0.557916 0.918352
vt 0.557916 0.720930
vt 0.904964 0.673070
vt 0.894508 0.475648
vt 0.904964 0.475648
vt 0.799124 0.699485
vt 0.788463 0.896907
vt 0.788463 0.699485
vt 0.872866 0.896907
vt 0.872866 0.699485
vt 0.386443 0.720930
vt 0.376594 0.918352
vt 0.376594 0.720930
vt 0.274555 0.113704
vt 0.269925 0.066695
vt 0.274555 0.043419
vt 0.146055 0.998159
vt 0.192920 0.998159
vt 0.189400 0.001760
vt 0.142535 0.001760
vt 0.028129 0.001760
vt 0.114653 0.001760
vt 0.057672 0.001760
vt 0.765368 0.449233
vt 0.671741 0.896907
vt 0.583734 0.694515
vt 0.302852 0.694515
vt 0.058054 0.789918
vt 0.863208 0.210629
vt 0.444492 0.694515
vt 0.350065 0.694515
vt 0.086771 0.998159
vt 0.061192 0.998159
vt 0.061192 0.001760
vt 0.548994 0.210629
vt 0.810214 0.449233
vt 0.720234 0.449233
vt 0.236143 0.789918
vt 0.679280 0.449233
vt 0.808934 0.673070
vt 0.686935 0.210629
vt 0.147314 0.789918
vt 0.597487 0.210629
vt 0.777201 0.210629
vt 0.718955 0.673070
vt 0.102900 0.789918
vt 0.645980 0.210629
vt 0.820205 0.210629
vt 0.732068 0.210629
vt 0.191728 0.789918
vt 0.942649 0.210629
vt 0.932658 0.449233
vt 0.604030 0.918352
vt 0.302852 0.918352
vt 0.640809 0.694515
vt 0.825539 0.896907
vt 0.422708 0.918352
vt 0.936153 0.699485
vt 0.977928 0.210629
vt 0.531501 0.918352
vt 0.905778 0.210629
vt 0.724972 0.699485
vt 0.724972 0.896907
vt 0.714311 0.896907
vt 0.339723 0.918352
vt 0.458972 0.918352
vt 0.976802 0.449233
vt 0.967938 0.449233
vt 0.967938 0.251812
vt 0.671741 0.449233
vt 0.966658 0.673070
vt 0.495237 0.918352
vt 0.899282 0.896907
vt 0.762048 0.699485
vt 0.762048 0.896907
vt 0.751387 0.896907
vt 0.895787 0.449233
vt 0.640294 0.918352
vt 0.971432 0.896907
vt 0.931379 0.673070
vt 0.567765 0.918352
vt 0.894508 0.673070
vt 0.799124 0.896907
vt 0.862410 0.896907
vt 0.386443 0.918352
vt 0.334778 0.180170
vt 0.326537 0.186933
vt 0.314927 0.169556
vt 0.324328 0.164531
vt 0.358692 0.213322
vt 0.341315 0.201711
vt 0.348078 0.193470
vt 0.317131 0.147154
vt 0.306929 0.150249
vt 0.302852 0.129751
vt 0.363717 0.203920
vt 0.398497 0.225396
vt 0.378000 0.221319
vt 0.381094 0.211118
vt 0.313461 0.128706
vt 0.399542 0.214787
vt 0.439893 0.221319
vt 0.419396 0.225396
vt 0.436798 0.211118
vt 0.418351 0.214787
vt 0.313461 0.109898
vt 0.302852 0.108853
vt 0.306929 0.088355
vt 0.317131 0.091450
vt 0.324328 0.074073
vt 0.314927 0.069047
vt 0.326537 0.051671
vt 0.289157 0.269964
vt 0.286831 0.246346
vt 0.289157 0.222728
vt 0.454175 0.203920
vt 0.476577 0.201711
vt 0.459201 0.213322
vt 0.469814 0.193470
vt 0.334778 0.058434
vt 0.502966 0.169557
vt 0.491355 0.186933
vt 0.483114 0.180170
vt 0.348078 0.045134
vt 0.341315 0.036893
vt 0.358692 0.025282
vt 0.493564 0.164531
vt 0.363717 0.034684
vt 0.381094 0.027486
vt 0.378000 0.017285
vt 0.398497 0.013208
vt 0.288199 0.206118
vt 0.285872 0.182500
vt 0.288199 0.158882
vt 0.515041 0.129751
vt 0.510963 0.150249
vt 0.504431 0.128706
vt 0.500762 0.147154
vt 0.399542 0.023817
vt 0.510963 0.088355
vt 0.515041 0.108853
vt 0.500762 0.091450
vt 0.504431 0.109898
vt 0.418351 0.023817
vt 0.419396 0.013208
vt 0.436798 0.027486
vt 0.439893 0.017285
vt 0.454175 0.034684
vt 0.459201 0.025282
vt 0.476577 0.036893
vt 0.296822 0.155362
vt 0.283637 0.135630
vt 0.493564 0.074073
vt 0.296822 0.001760
vt 0.491355 0.051671
vt 0.502966 0.069047
vt 0.483114 0.058434
vt 0.469814 0.045134
vt 0.269925 0.090427
vt 0.269925 0.224047
vt 0.283311 0.222728
vt 0.283311 0.249097
vt 0.671741 0.475648
vt 0.853217 0.251812
vt 0.013208 0.592496
vt 0.282353 0.219208
vt 0.269925 0.214062
vt 0.282353 0.190805
vt 0.851937 0.475648
vt 0.537320 0.497094
vt 0.282353 0.187285
vt 0.269925 0.182139
vt 0.282353 0.158882
vt 0.397278 0.497094
vn -0.0000 -1.0000 0.0000
vn 0.2903 -0.0000 -0.9569
vn 0.6344 -0.0000 -0.7730
vn 0.8819 -0.0000 -0.4714
vn 0.9952 -0.0000 -0.0980
vn 0.9569 0.0000 0.2903
vn 0.7730 0.0000 0.6344
vn 0.4714 0.0000 0.8819
vn 0.0980 0.0000 0.9952
vn -0.2903 0.0000 0.9569
vn -0.6344 0.0000 0.7730
vn -0.8819 0.0000 0.4714
vn -0.9952 0.0000 0.0980
vn -0.9569 -0.0000 -0.2903
vn -0.7730 -0.0000 -0.6344
vn -0.4714 -0.0000 -0.8819
vn -0.0980 -0.0000 -0.9952
vn 0.0980 -0.0000 -0.9952
vn 0.4714 -0.0000 -0.8819
vn 0.7730 -0.0000 -0.6344
vn 0.9569 -0.0000 -0.2903
vn 0.9952 0.0000 0.0980
vn 0.8819 0.0000 0.4714
vn 0.6344 0.0000 0.7730
vn 0.2903 0.0000 0.9569
vn -0.0980 0.0000 0.9952
vn -0.4714 0.0000 0.8819
vn -0.7730 0.0000 0.6344
vn -0.9569 0.0000 0.2903
vn -0.9952 -0.0000 -0.0980
vn -0.8819 -0.0000 -0.4714
vn -0.6344 -0.0000 -0.7730
vn -0.2903 -0.0000 -0.9569
vn 0.0000 -0.0000 -1.0000
vn -0.1951 0.0000 0.9808
vn 0.3827 -0.0000 -0.9239
vn -0.5556 0.0000 0.8315
vn 0.7071 -0.0000 -0.7071
vn -0.8315 0.0000 0.5556
vn 0.9239 -0.0000 -0.3827
vn -0.9808 0.0000 0.1951
vn 1.0000 0.0000 0.0000
vn -0.9808 -0.0000 -0.1951
vn 0.9239 0.0000 0.3827
vn -0.8315 -0.0000 -0.5556
vn 0.7071 0.0000 0.7071
vn -0.5556 -0.0000 -0.8315
vn 0.3827 0.0000 0.9239
vn -0.1951 -0.0000 -0.9808
vn 0.0000 0.0000 1.0000
vn 0.1951 -0.0000 -0.9808
vn -0.3827 0.0000 0.9239
vn 0.5556 -0.0000 -0.8315
vn -0.7071 0.0000 0.7071
vn 0.8315 -0.0000 -0.5556
vn -0.9239 0.0000 0.3827
vn 0.9808 -0.0000 -0.1951
vn -1.0000 0.0000 0.0000
vn 0.9808 0.0000 0.1951
vn -0.9239 -0.0000 -0.3827
vn 0.8315 0.0000 0.5556
vn -0.7071 -0.0000 -0.7071
vn 0.5556 0.0000 0.8315
vn -0.3827 -0.0000 -0.9239
vn 0.1951 0.0000 0.9808
vn 0.0000 1.0000 -0.0000
usemtl Material.001
s 1
f 1/1/1 2/2/1 3/3/1
f 4/4/2 5/5/2 6/6/2
f 7/7/3 8/8/3 9/9/3
f 10/10/4 11/11/4 12/12/4
f 13/13/5 14/14/5 15/15/5
f 16/16/6 17/17/6 18/18/6
f 19/19/7 20/20/7 21/21/7
f 22/22/8 23/23/8 24/24/8
f 25/25/9 26/26/9 27/27/9
f 28/28/10 29/29/10 30/30/10
f 31/31/11 32/32/11 33/33/11
f 34/34/12 35/35/12 36/36/12
f 37/37/13 38/38/13 39/39/13
f 40/40/14 41/41/14 42/42/14
f 43/43/15 44/44/15 45/45/15
f 46/46/16 47/47/16 48/48/16
f 49/49/17 50/50/17 51/51/17
f 52/52/18 53/53/18 54/54/18
f 55/55/19 56/56/19 57/57/19
f 58/58/20 59/59/20 60/60/20
f 61/61/21 62/62/21 63/63/21
f 64/64/22 65/65/22 66/66/22
f 67/67/23 68/68/23 69/69/23
f 70/70/24 71/71/24 72/72/24
f 73/73/25 74/74/25 75/75/25
f 76/76/26 77/77/26 78/78/26
f 79/79/27 1/1/27 80/80/27
f 81/81/28 2/2/28 82/82/28
f 83/83/29 84/84/29 3/85/29
f 85/86/30 86/87/30 87/88/30
f 88/89/31 89/90/31 90/91/31
f 91/92/32 92/93/32 93/94/32
f 94/95/33 95/96/33 96/97/33
f 97/98/34 87/99/34 38/100/34
f 86/87/35 40/101/35 42/102/35
f 98/103/36 90/104/36 41/105/36
f 89/106/37 43/107/37 45/108/37
f 99/109/38 93/110/38 44/111/38
f 92/112/39 46/113/39 48/114/39
f 100/115/40 96/116/40 47/117/40
f 95/118/41 49/119/41 51/120/41
f 52/121/42 50/122/42 101/123/42
f 53/53/43 4/124/43 6/125/43
f 102/126/44 57/127/44 5/128/44
f 56/129/45 7/130/45 9/131/45
f 103/132/46 60/133/46 8/134/46
f 59/135/47 10/136/47 12/137/47
f 104/138/48 63/139/48 11/140/48
f 62/141/49 13/142/49 15/143/49
f 105/144/50 66/145/50 14/146/50
f 65/147/51 16/148/51 18/149/51
f 106/150/52 69/151/52 17/152/52
f 68/153/53 19/154/53 21/155/53
f 107/156/54 72/157/54 20/158/54
f 71/159/55 22/160/55 24/161/55
f 108/162/56 75/163/56 23/164/56
f 74/165/57 25/166/57 27/167/57
f 109/168/58 78/169/58 26/170/58
f 77/77/59 28/171/59 30/172/59
f 110/173/60 80/174/60 29/175/60
f 1/176/61 31/177/61 33/178/61
f 111/179/62 82/180/62 32/181/62
f 2/182/63 34/183/63 36/184/63
f 112/185/64 3/3/64 35/186/64
f 84/187/65 37/188/65 39/189/65
f 81/190/66 79/191/66 113/192/66
f 4/4/2 102/193/2 5/5/2
f 7/7/3 103/194/3 8/8/3
f 10/10/4 104/195/4 11/11/4
f 13/13/5 105/196/5 14/14/5
f 16/16/6 106/197/6 17/17/6
f 19/19/7 107/198/7 20/20/7
f 22/22/8 108/199/8 23/23/8
f 25/25/9 109/200/9 26/26/9
f 28/28/10 110/201/10 29/29/10
f 31/31/11 111/202/11 32/32/11
f 34/34/12 112/203/12 35/35/12
f 37/37/13 97/204/13 38/38/13
f 40/40/14 98/205/14 41/41/14
f 43/43/15 99/206/15 44/44/15
f 46/46/16 100/207/16 47/47/16
f 49/208/17 101/209/17 50/210/17
f 52/52/18 114/211/18 53/53/18
f 55/55/19 115/212/19 56/56/19
f 58/58/20 116/213/20 59/59/20
f 61/61/21 117/214/21 62/62/21
f 64/64/22 118/215/22 65/65/22
f 67/67/23 119/216/23 68/68/23
f 70/70/24 120/217/24 71/71/24
f 73/73/25 121/218/25 74/74/25
f 76/76/26 113/219/26 77/77/26
f 79/79/27 122/220/27 1/1/27
f 81/81/28 123/221/28 2/2/28
f 83/83/29 124/222/29 84/84/29
f 85/86/30 125/223/30 86/87/30
f 88/89/31 126/224/31 89/90/31
f 91/92/32 127/225/32 92/93/32
f 94/95/33 128/226/33 95/96/33
f 97/98/34 85/227/34 87/99/34
f 86/87/35 125/223/35 40/101/35
f 98/103/36 88/228/36 90/104/36
f 89/106/37 126/229/37 43/107/37
f 99/109/38 91/230/38 93/110/38
f 92/112/39 127/231/39 46/113/39
f 100/115/40 94/232/40 96/116/40
f 95/118/41 128/233/41 49/119/41
f 52/121/42 54/234/42 50/122/42
f 53/53/43 114/211/43 4/124/43
f 102/126/44 55/235/44 57/127/44
f 56/129/45 115/236/45 7/130/45
f 103/132/46 58/237/46 60/133/46
f 59/238/47 116/239/47 10/240/47
f 104/138/48 61/241/48 63/139/48
f 62/141/49 117/242/49 13/142/49
f 105/243/50 64/244/50 66/245/50
f 65/65/51 118/215/51 16/246/51
f 106/150/52 67/247/52 69/151/52
f 68/153/53 119/248/53 19/154/53
f 107/156/54 70/249/54 72/157/54
f 71/250/55 120/251/55 22/252/55
f 108/162/56 73/253/56 75/163/56
f 74/165/57 121/254/57 25/166/57
f 109/168/58 76/255/58 78/169/58
f 77/77/59 113/219/59 28/171/59
f 110/173/60 79/256/60 80/174/60
f 1/176/61 122/257/61 31/177/61
f 111/179/62 81/258/62 82/180/62
f 2/182/63 123/259/63 34/183/63
f 112/185/64 83/260/64 3/3/64
f 84/187/65 124/261/65 37/188/65
f 55/262/66 102/263/66 4/264/66
f 55/262/66 4/264/66 114/265/66
f 103/266/66 7/267/66 115/268/66
f 115/268/66 55/262/66 114/265/66
f 52/269/66 101/270/66 49/271/66
f 115/268/66 114/265/66 52/269/66
f 58/272/66 103/266/66 115/268/66
f 104/273/66 10/274/66 116/275/66
f 116/275/66 58/272/66 115/268/66
f 52/269/66 49/271/66 128/276/66
f 116/275/66 115/268/66 128/276/66
f 115/268/66 52/269/66 128/276/66
f 61/277/66 104/273/66 116/275/66
f 105/278/66 13/279/66 64/280/66
f 13/279/66 117/281/66 64/280/66
f 117/281/66 61/277/66 116/275/66
f 94/282/66 100/283/66 46/284/66
f 116/275/66 128/276/66 117/281/66
f 128/276/66 94/282/66 117/281/66
f 94/282/66 46/284/66 127/285/66
f 91/286/66 99/287/66 43/288/66
f 94/289/66 127/290/66 91/291/66
f 64/280/66 117/281/66 118/292/66
f 117/281/66 94/282/66 118/292/66
f 106/293/66 16/294/66 67/295/66
f 16/294/66 118/292/66 67/295/66
f 91/286/66 43/288/66 126/296/66
f 118/292/66 94/282/66 91/286/66
f 107/297/66 19/298/66 119/299/66
f 119/299/66 67/295/66 118/292/66
f 118/292/66 91/286/66 126/296/66
f 88/300/66 98/301/66 40/302/66
f 118/292/66 126/296/66 88/300/66
f 70/303/66 107/297/66 119/299/66
f 119/299/66 118/292/66 70/303/66
f 118/292/66 88/300/66 70/303/66
f 88/300/66 40/302/66 125/304/66
f 85/305/66 97/306/66 37/307/66
f 88/308/66 125/309/66 85/310/66
f 108/311/66 22/312/66 73/313/66
f 22/312/66 120/314/66 73/313/66
f 120/314/66 70/303/66 88/300/66
f 85/305/66 37/307/66 124/315/66
f 120/314/66 88/300/66 85/305/66
f 109/316/66 25/317/66 76/318/66
f 25/317/66 121/319/66 76/318/66
f 121/319/66 73/313/66 120/314/66
f 120/314/66 85/305/66 124/315/66
f 83/320/66 112/321/66 123/322/66
f 112/321/66 34/323/66 123/322/66
f 120/314/66 124/315/66 83/320/66
f 121/319/66 120/314/66 83/320/66
f 81/324/66 111/325/66 31/326/66
f 83/327/66 123/328/66 81/190/66
f 76/318/66 121/319/66 113/329/66
f 121/330/66 83/327/66 113/192/66
f 110/331/66 28/332/66 79/333/66
f 28/332/66 113/329/66 79/333/66
f 81/324/66 31/326/66 122/334/66
f 113/192/66 83/327/66 81/190/66
f 81/190/66 122/335/66 79/191/66
f 9/131/1 8/134/1 60/133/1
f 59/336/1 12/337/1 11/338/1
f 56/56/1 9/131/1 60/133/1
f 59/59/1 11/339/1 63/139/1
f 56/56/1 60/133/1 59/59/1
f 6/125/1 5/340/1 53/53/1
f 5/340/1 57/127/1 53/53/1
f 57/127/1 56/56/1 59/59/1
f 59/59/1 63/139/1 62/62/1
f 62/62/1 15/143/1 14/341/1
f 62/62/1 14/341/1 66/245/1
f 57/127/1 59/59/1 66/245/1
f 59/59/1 62/62/1 66/245/1
f 51/120/1 50/50/1 95/96/1
f 50/50/1 54/234/1 95/96/1
f 54/234/1 53/53/1 57/127/1
f 65/342/1 18/343/1 17/344/1
f 57/127/1 66/245/1 54/234/1
f 66/245/1 65/65/1 54/234/1
f 65/65/1 17/345/1 69/151/1
f 68/68/1 21/155/1 72/157/1
f 21/155/1 20/346/1 72/157/1
f 65/65/1 69/151/1 96/116/1
f 69/151/1 68/68/1 96/116/1
f 95/96/1 54/234/1 96/116/1
f 54/234/1 65/65/1 96/116/1
f 48/114/1 47/47/1 92/93/1
f 47/47/1 96/116/1 92/93/1
f 45/108/1 44/44/1 93/110/1
f 93/110/1 92/93/1 96/116/1
f 96/116/1 68/68/1 71/71/1
f 68/68/1 72/157/1 71/71/1
f 71/347/1 24/348/1 23/349/1
f 89/90/1 45/108/1 93/110/1
f 93/110/1 96/116/1 89/90/1
f 96/116/1 71/71/1 89/90/1
f 71/71/1 23/350/1 75/163/1
f 74/74/1 27/167/1 26/26/1
f 71/71/1 75/163/1 74/74/1
f 42/102/1 41/41/1 86/87/1
f 41/41/1 90/104/1 86/87/1
f 90/104/1 89/90/1 71/71/1
f 74/74/1 26/26/1 78/169/1
f 90/104/1 71/71/1 78/169/1
f 71/71/1 74/74/1 78/169/1
f 39/189/1 38/38/1 84/84/1
f 38/38/1 87/99/1 84/84/1
f 87/99/1 86/87/1 90/104/1
f 77/77/1 30/172/1 29/29/1
f 90/104/1 78/169/1 87/99/1
f 78/169/1 77/77/1 87/99/1
f 77/77/1 29/29/1 80/174/1
f 1/1/1 33/178/1 82/180/1
f 33/178/1 32/32/1 82/180/1
f 77/77/1 80/174/1 3/3/1
f 80/174/1 1/1/1 3/3/1
f 84/84/1 87/99/1 3/3/1
f 87/99/1 77/77/1 3/3/1
f 36/184/1 35/35/1 2/2/1
f 35/35/1 3/3/1 2/2/1
f 1/1/1 82/180/1 2/2/1
