# Blender v3.5.0 OBJ File: ''
# www.blender.org
mtllib PillarFoundation.mtl
o Cube.001
v -1.000000 0.500000 -1.000000
v 1.000000 0.500000 1.000000
v 1.000000 0.500000 -1.000000
v -1.000000 0.000000 1.000000
v 1.000000 0.000000 1.000000
v -1.000000 0.500000 1.000000
v -1.000000 -0.000000 -1.000000
v 1.000000 -0.000000 -1.000000
v 0.158023 2.000000 -0.794436
v 0.309974 0.500000 -0.748342
v 0.158023 0.500000 -0.794436
v 0.450012 2.000000 -0.673490
v 0.572757 0.500000 -0.572757
v 0.450012 0.500000 -0.673490
v 0.673490 2.000000 -0.450012
v 0.748342 0.500000 -0.309974
v 0.673490 0.500000 -0.450012
v 0.794436 2.000000 -0.158023
v 0.810000 0.500000 -0.000000
v 0.794436 0.500000 -0.158023
v 0.794436 2.000000 0.158023
v 0.748342 0.500000 0.309974
v 0.794436 0.500000 0.158023
v 0.673490 2.000000 0.450012
v 0.572757 0.500000 0.572757
v 0.673490 0.500000 0.450012
v 0.450012 2.000000 0.673490
v 0.309974 0.500000 0.748342
v 0.450012 0.500000 0.673490
v 0.158023 2.000000 0.794436
v 0.000000 0.500000 0.810000
v 0.158023 0.500000 0.794436
v -0.158023 2.000000 0.794436
v -0.309974 0.500000 0.748342
v -0.158023 0.500000 0.794436
v -0.450012 2.000000 0.673490
v -0.572757 0.500000 0.572757
v -0.450012 0.500000 0.673490
v -0.673490 2.000000 0.450012
v -0.748342 0.500000 0.309974
v -0.673490 0.500000 0.450012
v -0.794436 2.000000 0.158023
v -0.810000 0.500000 -0.000000
v -0.794436 0.500000 0.158023
v -0.794436 2.000000 -0.158023
v -0.748342 0.500000 -0.309974
v -0.794436 0.500000 -0.158023
v -0.673490 2.000000 -0.450012
v -0.572757 0.500000 -0.572757
v -0.673490 0.500000 -0.450012
v -0.450012 2.000000 -0.673490
v -0.309974 0.500000 -0.748342
v -0.450012 0.500000 -0.673490
v -0.158023 2.000000 -0.794436
v 0.000000 0.500000 -0.810000
v -0.158023 0.500000 -0.794436
v 0.000000 2.000000 -0.729000
v 0.142221 0.500000 -0.714993
v 0.000000 0.500000 -0.729000
v 0.278976 2.000000 -0.673508
v 0.405011 0.500000 -0.606141
v 0.278976 0.500000 -0.673508
v 0.515481 2.000000 -0.515481
v 0.606141 0.500000 -0.405011
v 0.515481 0.500000 -0.515481
v 0.673508 2.000000 -0.278976
v 0.714993 0.500000 -0.142221
v 0.673508 0.500000 -0.278976
v 0.729000 2.000000 -0.000000
v 0.714993 0.500000 0.142221
v 0.729000 0.500000 -0.000000
v 0.673508 2.000000 0.278976
v 0.606141 0.500000 0.405011
v 0.673508 0.500000 0.278976
v 0.515481 2.000000 0.515481
v 0.405011 0.500000 0.606141
v 0.515481 0.500000 0.515481
v 0.278976 2.000000 0.673508
v 0.142221 0.500000 0.714993
v 0.278976 0.500000 0.673508
v 0.000000 2.000000 0.729000
v -0.142221 0.500000 0.714993
v 0.000000 0.500000 0.729000
v -0.278976 2.000000 0.673508
v -0.405011 0.500000 0.606141
v -0.278976 0.500000 0.673508
v -0.515481 2.000000 0.515481
v -0.606141 0.500000 0.405011
v -0.515481 0.500000 0.515481
v -0.673508 2.000000 0.278976
v -0.714993 0.500000 0.142221
v -0.673508 0.500000 0.278976
v -0.729000 2.000000 -0.000000
v -0.714993 0.500000 -0.142221
v -0.729000 0.500000 -0.000000
v -0.673508 2.000000 -0.278976
v -0.606141 0.500000 -0.405011
v -0.673508 0.500000 -0.278976
v -0.515481 2.000000 -0.515481
v -0.405011 0.500000 -0.606141
v -0.515481 0.500000 -0.515481
v -0.278976 2.000000 -0.673508
v -0.142221 0.500000 -0.714993
v -0.278976 0.500000 -0.673508
v -0.810000 2.000000 -0.000000
v -0.748342 2.000000 -0.309974
v -0.572757 2.000000 -0.572757
v -0.309974 2.000000 -0.748342
v 0.000000 2.000000 -0.810000
v 0.309974 2.000000 -0.748342
v 0.572757 2.000000 -0.572757
v 0.748342 2.000000 -0.309974
v 0.810000 2.000000 -0.000000
v 0.748342 2.000000 0.309974
v 0.572757 2.000000 0.572757
v 0.309974 2.000000 0.748342
v 0.000000 2.000000 0.810000
v -0.309974 2.000000 0.748342
v -0.572757 2.000000 0.572757
v -0.748342 2.000000 0.309974
v -0.142221 2.000000 0.714993
v 0.142221 2.000000 -0.714993
v 0.405011 2.000000 -0.606141
v 0.606141 2.000000 -0.405011
v 0.714993 2.000000 -0.142221
v 0.714993 2.000000 0.142221
v 0.606141 2.000000 0.405011
v 0.405011 2.000000 0.606141
v 0.142221 2.000000 0.714993
v -0.405011 2.000000 0.606141
v -0.606141 2.000000 0.405011
v -0.714993 2.000000 0.142221
v -0.714993 2.000000 -0.142221
v -0.606141 2.000000 -0.405011
v -0.405011 2.000000 -0.606141
v -0.142221 2.000000 -0.714993
vt 0.276437 0.302852
vt 0.013208 0.566081
vt 0.013208 0.302852
vt 0.487297 0.470678
vt 0.553104 0.251812
vt 0.553104 0.470678
vt 0.579519 0.470678
vt 0.645326 0.251812
vt 0.645326 0.470678
vt 0.276437 0.013208
vt 0.013208 0.276437
vt 0.013208 0.013208
vt 0.302852 0.470678
vt 0.368659 0.251812
vt 0.368659 0.470678
vt 0.395074 0.470678
vt 0.460881 0.251812
vt 0.460881 0.470678
vt 0.869372 0.449233
vt 0.853217 0.251812
vt 0.869372 0.251812
vt 0.510905 0.694515
vt 0.490906 0.497094
vt 0.510905 0.497094
vt 0.692539 0.673070
vt 0.671741 0.475648
vt 0.692539 0.475648
vt 0.031639 0.789918
vt 0.013208 0.592496
vt 0.031639 0.592496
vt 0.868092 0.673070
vt 0.851937 0.475648
vt 0.868092 0.475648
vt 0.557319 0.694515
vt 0.537320 0.497094
vt 0.557319 0.497094
vt 0.418076 0.694515
vt 0.397278 0.497094
vt 0.418076 0.497094
vt 0.783799 0.449233
vt 0.765368 0.251812
vt 0.783799 0.251812
vt 0.687896 0.896907
vt 0.671741 0.699485
vt 0.687896 0.699485
vt 0.603733 0.694515
vt 0.583734 0.497094
vt 0.603733 0.497094
vt 0.323650 0.694515
vt 0.302852 0.497094
vt 0.323650 0.497094
vt 0.076485 0.789918
vt 0.058054 0.592496
vt 0.076485 0.592496
vt 0.879363 0.210629
vt 0.863208 0.013208
vt 0.879363 0.013208
vt 0.464491 0.694515
vt 0.444492 0.497094
vt 0.464491 0.497094
vt 0.370863 0.694515
vt 0.350065 0.497094
vt 0.370863 0.497094
vt 0.782519 0.673070
vt 0.764088 0.475648
vt 0.782519 0.475648
vt 0.563533 0.210629
vt 0.548994 0.013208
vt 0.563533 0.013208
vt 0.826802 0.449233
vt 0.810214 0.251812
vt 0.826802 0.251812
vt 0.738953 0.449233
vt 0.720234 0.251812
vt 0.738953 0.251812
vt 0.254142 0.789918
vt 0.236143 0.592496
vt 0.254142 0.592496
vt 0.693819 0.449233
vt 0.679280 0.251812
vt 0.693819 0.251812
vt 0.825522 0.673070
vt 0.808934 0.475648
vt 0.825522 0.475648
vt 0.705653 0.210629
vt 0.686935 0.013208
vt 0.705653 0.013208
vt 0.165313 0.789918
vt 0.147314 0.592496
vt 0.165313 0.592496
vt 0.612026 0.210629
vt 0.597487 0.013208
vt 0.612026 0.013208
vt 0.793789 0.210629
vt 0.777201 0.013208
vt 0.793789 0.013208
vt 0.737673 0.673070
vt 0.718955 0.475648
vt 0.737673 0.475648
vt 0.120899 0.789918
vt 0.102900 0.592496
vt 0.120899 0.592496
vt 0.660519 0.210629
vt 0.645980 0.013208
vt 0.660519 0.013208
vt 0.836793 0.210629
vt 0.820205 0.013208
vt 0.836793 0.013208
vt 0.750786 0.210629
vt 0.732068 0.013208
vt 0.750786 0.013208
vt 0.209727 0.789918
vt 0.191728 0.592496
vt 0.209727 0.592496
vt 0.951513 0.210629
vt 0.942649 0.013208
vt 0.951513 0.013208
vt 0.638442 0.210629
vt 0.638442 0.013208
vt 0.941522 0.449233
vt 0.932658 0.251812
vt 0.941522 0.251812
vt 0.604030 0.720930
vt 0.594181 0.918352
vt 0.594181 0.720930
vt 0.313308 0.918352
vt 0.302852 0.720930
vt 0.313308 0.720930
vt 0.640809 0.497094
vt 0.630148 0.694515
vt 0.630148 0.497094
vt 0.835995 0.896907
vt 0.825539 0.699485
vt 0.835995 0.699485
vt 0.422708 0.720930
vt 0.412858 0.918352
vt 0.412858 0.720930
vt 0.936153 0.896907
vt 0.945017 0.699485
vt 0.945017 0.896907
vt 0.541456 0.210629
vt 0.541456 0.013208
vt 0.986792 0.210629
vt 0.977928 0.013208
vt 0.986792 0.013208
vt 0.531501 0.720930
vt 0.521652 0.918352
vt 0.521652 0.720930
vt 0.916234 0.210629
vt 0.905778 0.013208
vt 0.916234 0.013208
vt 0.724972 0.699485
vt 0.714311 0.896907
vt 0.714311 0.699485
vt 0.350179 0.918352
vt 0.339723 0.720930
vt 0.350179 0.720930
vt 0.458972 0.720930
vt 0.449123 0.918352
vt 0.449123 0.720930
vt 0.976802 0.449233
vt 0.967938 0.251812
vt 0.976802 0.251812
vt 0.671741 0.449233
vt 0.671741 0.251812
vt 0.975522 0.673070
vt 0.966658 0.475648
vt 0.975522 0.475648
vt 0.495237 0.720930
vt 0.485387 0.918352
vt 0.485387 0.720930
vt 0.909737 0.896907
vt 0.899282 0.699485
vt 0.909737 0.699485
vt 0.762048 0.699485
vt 0.751387 0.896907
vt 0.751387 0.699485
vt 0.906243 0.449233
vt 0.895787 0.251812
vt 0.906243 0.251812
vt 0.640294 0.720930
vt 0.630445 0.918352
vt 0.630445 0.720930
vt 0.980296 0.896907
vt 0.971432 0.699485
vt 0.980296 0.699485
vt 0.589949 0.210629
vt 0.589949 0.013208
vt 0.940243 0.673070
vt 0.931379 0.475648
vt 0.940243 0.475648
vt 0.567765 0.720930
vt 0.557916 0.918352
vt 0.557916 0.720930
vt 0.904964 0.673070
vt 0.894508 0.475648
vt 0.904964 0.475648
vt 0.799124 0.699485
vt 0.788463 0.896907
vt 0.788463 0.699485
vt 0.872866 0.896907
vt 0.862410 0.699485
vt 0.872866 0.699485
vt 0.386443 0.720930
vt 0.376594 0.918352
vt 0.376594 0.720930
vt 0.454175 0.034684
vt 0.483114 0.058434
vt 0.493564 0.074073
vt 0.276437 0.566081
vt 0.487297 0.251812
vt 0.579519 0.251812
vt 0.276437 0.276437
vt 0.302852 0.251812
vt 0.395074 0.251812
vt 0.853217 0.449233
vt 0.490906 0.694515
vt 0.671741 0.673070
vt 0.013208 0.789918
vt 0.851937 0.673070
vt 0.537320 0.694515
vt 0.397278 0.694515
vt 0.765368 0.449233
vt 0.671741 0.896907
vt 0.583734 0.694515
vt 0.302852 0.694515
vt 0.058054 0.789918
vt 0.863208 0.210629
vt 0.444492 0.694515
vt 0.350065 0.694515
vt 0.764088 0.673070
vt 0.548994 0.210629
vt 0.810214 0.449233
vt 0.720234 0.449233
vt 0.236143 0.789918
vt 0.679280 0.449233
vt 0.808934 0.673070
vt 0.686935 0.210629
vt 0.147314 0.789918
vt 0.597487 0.210629
vt 0.777201 0.210629
vt 0.718955 0.673070
vt 0.102900 0.789918
vt 0.645980 0.210629
vt 0.820205 0.210629
vt 0.732068 0.210629
vt 0.191728 0.789918
vt 0.942649 0.210629
vt 0.932658 0.449233
vt 0.604030 0.918352
vt 0.302852 0.918352
vt 0.640809 0.694515
vt 0.825539 0.896907
vt 0.422708 0.918352
vt 0.936153 0.699485
vt 0.977928 0.210629
vt 0.531501 0.918352
vt 0.905778 0.210629
vt 0.724972 0.896907
vt 0.339723 0.918352
vt 0.458972 0.918352
vt 0.967938 0.449233
vt 0.966658 0.673070
vt 0.495237 0.918352
vt 0.899282 0.896907
vt 0.762048 0.896907
vt 0.895787 0.449233
vt 0.640294 0.918352
vt 0.971432 0.896907
vt 0.931379 0.673070
vt 0.567765 0.918352
vt 0.894508 0.673070
vt 0.799124 0.896907
vt 0.862410 0.896907
vt 0.386443 0.918352
vt 0.334778 0.180170
vt 0.326537 0.186933
vt 0.314927 0.169556
vt 0.324328 0.164531
vt 0.358692 0.213322
vt 0.341315 0.201711
vt 0.348078 0.193470
vt 0.317131 0.147154
vt 0.306929 0.150249
vt 0.302852 0.129751
vt 0.363717 0.203920
vt 0.398497 0.225396
vt 0.378000 0.221319
vt 0.381094 0.211118
vt 0.313461 0.128706
vt 0.399542 0.214787
vt 0.439893 0.221319
vt 0.419396 0.225396
vt 0.436798 0.211118
vt 0.418351 0.214787
vt 0.313461 0.109898
vt 0.302852 0.108853
vt 0.306929 0.088355
vt 0.317131 0.091450
vt 0.324328 0.074073
vt 0.314927 0.069047
vt 0.326537 0.051671
vt 0.454175 0.203920
vt 0.476577 0.201711
vt 0.459201 0.213322
vt 0.469814 0.193470
vt 0.334778 0.058434
vt 0.502966 0.169557
vt 0.491355 0.186933
vt 0.483114 0.180170
vt 0.348078 0.045134
vt 0.341315 0.036893
vt 0.358692 0.025282
vt 0.493564 0.164531
vt 0.363717 0.034684
vt 0.381094 0.027486
vt 0.378000 0.017285
vt 0.398497 0.013208
vt 0.515041 0.129751
vt 0.510963 0.150249
vt 0.504431 0.128706
vt 0.500762 0.147154
vt 0.399542 0.023817
vt 0.510963 0.088355
vt 0.515041 0.108853
vt 0.500762 0.091450
vt 0.504431 0.109898
vt 0.418351 0.023817
vt 0.419396 0.013208
vt 0.436798 0.027486
vt 0.439893 0.017285
vt 0.459201 0.025282
vt 0.476577 0.036893
vt 0.491355 0.051671
vt 0.502966 0.069047
vt 0.469814 0.045134
vn 0.0000 1.0000 -0.0000
vn 0.0000 0.0000 1.0000
vn -1.0000 0.0000 0.0000
vn 0.0000 -1.0000 0.0000
vn 1.0000 -0.0000 0.0000
vn 0.0000 0.0000 -1.0000
vn 0.2903 -0.0000 -0.9569
vn 0.6344 -0.0000 -0.7730
vn 0.8819 -0.0000 -0.4714
vn 0.9952 -0.0000 -0.0980
vn 0.9569 0.0000 0.2903
vn 0.7730 0.0000 0.6344
vn 0.4714 0.0000 0.8819
vn 0.0980 0.0000 0.9952
vn -0.2903 0.0000 0.9569
vn -0.6344 0.0000 0.7730
vn -0.8819 0.0000 0.4714
vn -0.9952 0.0000 0.0980
vn -0.9569 -0.0000 -0.2903
vn -0.7730 -0.0000 -0.6344
vn -0.4714 -0.0000 -0.8819
vn -0.0980 -0.0000 -0.9952
vn 0.0980 -0.0000 -0.9952
vn 0.4714 -0.0000 -0.8819
vn 0.7730 -0.0000 -0.6344
vn 0.9569 -0.0000 -0.2903
vn 0.9952 0.0000 0.0980
vn 0.8819 0.0000 0.4714
vn 0.6344 0.0000 0.7730
vn 0.2903 0.0000 0.9569
vn -0.0980 0.0000 0.9952
vn -0.4714 0.0000 0.8819
vn -0.7730 0.0000 0.6344
vn -0.9569 0.0000 0.2903
vn -0.9952 -0.0000 -0.0980
vn -0.8819 -0.0000 -0.4714
vn -0.6344 -0.0000 -0.7730
vn -0.2903 -0.0000 -0.9569
vn -0.1951 0.0000 0.9808
vn 0.3827 -0.0000 -0.9239
vn -0.5556 0.0000 0.8315
vn 0.7071 -0.0000 -0.7071
vn -0.8315 0.0000 0.5556
vn 0.9239 -0.0000 -0.3827
vn -0.9808 0.0000 0.1951
vn -0.9808 -0.0000 -0.1951
vn 0.9239 0.0000 0.3827
vn -0.8315 -0.0000 -0.5556
vn 0.7071 0.0000 0.7071
vn -0.5556 -0.0000 -0.8315
vn 0.3827 0.0000 0.9239
vn -0.1951 -0.0000 -0.9808
vn 0.1951 -0.0000 -0.9808
vn -0.3827 0.0000 0.9239
vn 0.5556 -0.0000 -0.8315
vn -0.7071 0.0000 0.7071
vn 0.8315 -0.0000 -0.5556
vn -0.9239 0.0000 0.3827
vn 0.9808 -0.0000 -0.1951
vn 0.9808 0.0000 0.1951
vn -0.9239 -0.0000 -0.3827
vn 0.8315 0.0000 0.5556
vn -0.7071 -0.0000 -0.7071
vn 0.5556 0.0000 0.8315
vn -0.3827 -0.0000 -0.9239
vn 0.1951 0.0000 0.9808
usemtl Material.001
s 1
f 1/1/1 2/2/1 3/3/1
f 2/4/2 4/5/2 5/6/2
f 6/7/3 7/8/3 4/9/3
f 8/10/4 4/11/4 7/12/4
f 3/13/5 5/14/5 8/15/5
f 1/16/6 8/17/6 7/18/6
f 9/19/7 10/20/7 11/21/7
f 12/22/8 13/23/8 14/24/8
f 15/25/9 16/26/9 17/27/9
f 18/28/10 19/29/10 20/30/10
f 21/31/11 22/32/11 23/33/11
f 24/34/12 25/35/12 26/36/12
f 27/37/13 28/38/13 29/39/13
f 30/40/14 31/41/14 32/42/14
f 33/43/15 34/44/15 35/45/15
f 36/46/16 37/47/16 38/48/16
f 39/49/17 40/50/17 41/51/17
f 42/52/18 43/53/18 44/54/18
f 45/55/19 46/56/19 47/57/19
f 48/58/20 49/59/20 50/60/20
f 51/61/21 52/62/21 53/63/21
f 54/64/22 55/65/22 56/66/22
f 57/67/23 58/68/23 59/69/23
f 60/70/24 61/71/24 62/72/24
f 63/73/25 64/74/25 65/75/25
f 66/76/26 67/77/26 68/78/26
f 69/79/27 70/80/27 71/81/27
f 72/82/28 73/83/28 74/84/28
f 75/85/29 76/86/29 77/87/29
f 78/88/30 79/89/30 80/90/30
f 81/91/31 82/92/31 83/93/31
f 84/94/32 85/95/32 86/96/32
f 87/97/33 88/98/33 89/99/33
f 90/100/34 91/101/34 92/102/34
f 93/103/35 94/104/35 95/105/35
f 96/106/36 97/107/36 98/108/36
f 99/109/37 100/110/37 101/111/37
f 102/112/38 103/113/38 104/114/38
f 105/115/6 95/116/6 43/117/6
f 94/104/39 45/118/39 47/119/39
f 106/120/40 98/121/40 46/122/40
f 97/123/41 48/124/41 50/125/41
f 107/126/42 101/127/42 49/128/42
f 100/129/43 51/130/43 53/131/43
f 108/132/44 104/133/44 52/134/44
f 103/135/45 54/136/45 56/137/45
f 57/138/5 55/139/5 109/140/5
f 58/68/46 9/141/46 11/142/46
f 110/143/47 62/144/47 10/145/47
f 61/146/48 12/147/48 14/148/48
f 111/149/49 65/150/49 13/151/49
f 64/152/50 15/153/50 17/154/50
f 112/155/51 68/156/51 16/157/51
f 67/158/52 18/159/52 20/160/52
f 113/161/2 71/162/2 19/163/2
f 70/80/53 21/164/53 23/165/53
f 114/166/54 74/167/54 22/168/54
f 73/169/55 24/170/55 26/171/55
f 115/172/56 77/173/56 25/174/56
f 76/175/57 27/176/57 29/177/57
f 116/178/58 80/179/58 28/180/58
f 79/181/59 30/182/59 32/183/59
f 117/184/3 83/185/3 31/186/3
f 82/92/60 33/187/60 35/188/60
f 118/189/61 86/190/61 34/191/61
f 85/192/62 36/193/62 38/194/62
f 119/195/63 89/196/63 37/197/63
f 88/198/64 39/199/64 41/200/64
f 120/201/65 92/202/65 40/203/65
f 91/204/66 42/205/66 44/206/66
f 87/207/1 84/208/1 121/209/1
f 1/1/1 6/210/1 2/2/1
f 2/4/2 6/211/2 4/5/2
f 6/7/3 1/212/3 7/8/3
f 8/10/4 5/213/4 4/11/4
f 3/13/5 2/214/5 5/14/5
f 1/16/6 3/215/6 8/17/6
f 9/19/7 110/216/7 10/20/7
f 12/22/8 111/217/8 13/23/8
f 15/25/9 112/218/9 16/26/9
f 18/28/10 113/219/10 19/29/10
f 21/31/11 114/220/11 22/32/11
f 24/34/12 115/221/12 25/35/12
f 27/37/13 116/222/13 28/38/13
f 30/40/14 117/223/14 31/41/14
f 33/43/15 118/224/15 34/44/15
f 36/46/16 119/225/16 37/47/16
f 39/49/17 120/226/17 40/50/17
f 42/52/18 105/227/18 43/53/18
f 45/55/19 106/228/19 46/56/19
f 48/58/20 107/229/20 49/59/20
f 51/61/21 108/230/21 52/62/21
f 54/64/22 109/231/22 55/65/22
f 57/67/23 122/232/23 58/68/23
f 60/70/24 123/233/24 61/71/24
f 63/73/25 124/234/25 64/74/25
f 66/76/26 125/235/26 67/77/26
f 69/79/27 126/236/27 70/80/27
f 72/82/28 127/237/28 73/83/28
f 75/85/29 128/238/29 76/86/29
f 78/88/30 129/239/30 79/89/30
f 81/91/31 121/240/31 82/92/31
f 84/94/32 130/241/32 85/95/32
f 87/97/33 131/242/33 88/98/33
f 90/100/34 132/243/34 91/101/34
f 93/103/35 133/244/35 94/104/35
f 96/106/36 134/245/36 97/107/36
f 99/109/37 135/246/37 100/110/37
f 102/112/38 136/247/38 103/113/38
f 105/115/6 93/248/6 95/116/6
f 94/104/39 133/244/39 45/118/39
f 106/120/40 96/249/40 98/121/40
f 97/123/41 134/250/41 48/124/41
f 107/126/42 99/251/42 101/127/42
f 100/129/43 135/252/43 51/130/43
f 108/132/44 102/253/44 104/133/44
f 103/135/45 136/254/45 54/136/45
f 57/138/5 59/255/5 55/139/5
f 58/68/46 122/232/46 9/141/46
f 110/143/47 60/256/47 62/144/47
f 61/146/48 123/257/48 12/147/48
f 111/149/49 63/258/49 65/150/49
f 64/152/50 124/259/50 15/153/50
f 112/155/51 66/260/51 68/156/51
f 67/158/52 125/261/52 18/159/52
f 113/161/2 69/262/2 71/162/2
f 70/80/53 126/236/53 21/164/53
f 114/166/54 72/263/54 74/167/54
f 73/169/55 127/264/55 24/170/55
f 115/172/56 75/265/56 77/173/56
f 76/175/57 128/266/57 27/176/57
f 116/178/58 78/267/58 80/179/58
f 79/181/59 129/268/59 30/182/59
f 117/184/3 81/269/3 83/185/3
f 82/92/60 121/240/60 33/187/60
f 118/189/61 84/270/61 86/190/61
f 85/192/62 130/271/62 36/193/62
f 119/195/63 87/272/63 89/196/63
f 88/198/64 131/273/64 39/199/64
f 120/201/65 90/274/65 92/202/65
f 91/204/66 132/275/66 42/205/66
f 60/276/1 110/277/1 9/278/1
f 60/276/1 9/278/1 122/279/1
f 111/280/1 12/281/1 123/282/1
f 123/282/1 60/276/1 122/279/1
f 57/283/1 109/284/1 54/285/1
f 123/282/1 122/279/1 57/283/1
f 63/286/1 111/280/1 123/282/1
f 112/287/1 15/288/1 124/289/1
f 124/289/1 63/286/1 123/282/1
f 57/283/1 54/285/1 136/290/1
f 124/289/1 123/282/1 136/290/1
f 123/282/1 57/283/1 136/290/1
f 66/291/1 112/287/1 124/289/1
f 113/292/1 18/293/1 69/294/1
f 18/293/1 125/295/1 69/294/1
f 125/295/1 66/291/1 124/289/1
f 102/296/1 108/297/1 51/298/1
f 124/289/1 136/290/1 125/295/1
f 136/290/1 102/296/1 125/295/1
f 102/296/1 51/298/1 135/299/1
f 99/300/1 107/301/1 48/302/1
f 102/296/1 135/299/1 99/300/1
f 69/294/1 125/295/1 126/303/1
f 125/295/1 102/296/1 126/303/1
f 114/304/1 21/305/1 72/306/1
f 21/305/1 126/303/1 72/306/1
f 99/300/1 48/302/1 134/307/1
f 126/303/1 102/296/1 99/300/1
f 115/308/1 24/309/1 127/310/1
f 127/310/1 72/306/1 126/303/1
f 126/303/1 99/300/1 134/307/1
f 96/311/1 106/312/1 45/313/1
f 126/303/1 134/307/1 96/311/1
f 75/314/1 115/308/1 127/310/1
f 127/310/1 126/303/1 75/314/1
f 126/303/1 96/311/1 75/314/1
f 96/311/1 45/313/1 133/315/1
f 93/316/1 105/317/1 42/318/1
f 96/311/1 133/315/1 93/316/1
f 116/319/1 27/320/1 78/321/1
f 27/320/1 128/322/1 78/321/1
f 128/322/1 75/314/1 96/311/1
f 93/316/1 42/318/1 132/323/1
f 128/322/1 96/311/1 93/316/1
f 117/324/1 30/325/1 81/326/1
f 30/325/1 129/327/1 81/326/1
f 129/327/1 78/321/1 128/322/1
f 128/322/1 93/316/1 132/323/1
f 90/328/1 120/329/1 131/330/1
f 120/329/1 39/331/1 131/330/1
f 128/322/1 132/323/1 90/328/1
f 129/327/1 128/322/1 90/328/1
f 87/207/1 119/332/1 36/333/1
f 90/328/1 131/330/1 87/207/1
f 81/326/1 129/327/1 121/209/1
f 129/327/1 90/328/1 121/209/1
f 118/334/1 33/335/1 84/208/1
f 33/335/1 121/209/1 84/208/1
f 87/207/1 36/333/1 130/336/1
f 121/209/1 90/328/1 87/207/1
f 87/207/1 130/336/1 84/208/1
