{
	"asset":{
		"generator":"Khronos glTF Blender I/O v3.5.30",
		"version":"2.0"
	},
	"scene":0,
	"scenes":[
		{
			"name":"Scene",
			"nodes":[
				10
			]
		}
	],
	"nodes":[
		{
			"name":"Bone.008",
			"rotation":[
				1.7763568394002505e-15,
				1.0658141036401503e-14,
				4.23518897007851e-22,
				1
			],
			"translation":[
				6.844030995952663e-24,
				0.24949491024017334,
				7.105427357601002e-15
			]
		},
		{
			"children":[
				0
			],
			"name":"Bone.007",
			"rotation":[
				1.7763568394002505e-15,
				3.552713678800501e-15,
				4.235184931110675e-22,
				1
			],
			"translation":[
				1.7009099255045533e-21,
				0.2494955062866211,
				0
			]
		},
		{
			"children":[
				1
			],
			"name":"Bone.006",
			"rotation":[
				0,
				3.552713678800501e-15,
				1.6155871338926322e-27,
				1
			],
			"scale":[
				1,
				0.9999999403953552,
				1
			],
			"translation":[
				6.844030995952663e-24,
				0.24949491024017334,
				7.105427357601002e-15
			]
		},
		{
			"children":[
				2
			],
			"name":"Bone.005",
			"rotation":[
				1.7763568394002505e-15,
				-1.0658141036401503e-14,
				4.235176853175006e-22,
				1
			],
			"translation":[
				6.844030995952663e-24,
				0.24633026123046875,
				0
			]
		},
		{
			"children":[
				3
			],
			"name":"Bone.004",
			"rotation":[
				1.7763568394002505e-15,
				1.1920928955078125e-07,
				8.795736994083823e-22,
				1
			],
			"translation":[
				1.0097419586828951e-28,
				0.25266027450561523,
				0
			]
		},
		{
			"children":[
				4
			],
			"name":"Bone.003",
			"rotation":[
				1.7763559923673032e-15,
				-1.1920928244535389e-07,
				-3.25392375411439e-23,
				1
			],
			"translation":[
				1.700909319659378e-21,
				0.24949514865875244,
				-2.541098841762901e-21
			]
		},
		{
			"children":[
				5
			],
			"name":"Bone.002",
			"rotation":[
				2.8421712818535796e-14,
				3.552713678800501e-15,
				-4.81482486096809e-35,
				1
			],
			"scale":[
				1,
				0.9999999403953552,
				1
			],
			"translation":[
				1.7009099255045533e-21,
				0.2494949996471405,
				5.740172876952943e-17
			]
		},
		{
			"children":[
				6
			],
			"name":"Bone.001",
			"rotation":[
				-3.026028139174741e-07,
				1.1920927533992653e-07,
				-3.607306307503756e-14,
				1
			],
			"translation":[
				0,
				0.24949505925178528,
				-7.105427357601002e-15
			]
		},
		{
			"children":[
				7
			],
			"name":"Bone",
			"rotation":[
				-1,
				0,
				0,
				3.3011536970661837e-07
			],
			"scale":[
				1,
				0.9999999403953552,
				0.9999999403953552
			],
			"translation":[
				0,
				-0.0020197033882141113,
				7.549789415861596e-08
			]
		},
		{
			"mesh":0,
			"name":"Cube",
			"skin":0
		},
		{
			"children":[
				9,
				8
			],
			"name":"\u30a2\u30fc\u30de\u30c1\u30e5\u30a2"
		}
	],
	"materials":[
		{
			"doubleSided":true,
			"name":"Material",
			"pbrMetallicRoughness":{
				"baseColorTexture":{
					"index":0
				},
				"metallicFactor":0,
				"roughnessFactor":0.5
			}
		}
	],
	"meshes":[
		{
			"name":"Cube",
			"primitives":[
				{
					"attributes":{
						"POSITION":0,
						"TEXCOORD_0":1,
						"NORMAL":2,
						"JOINTS_0":3,
						"WEIGHTS_0":4
					},
					"indices":5,
					"material":0
				}
			]
		}
	],
	"textures":[
		{
			"sampler":0,
			"source":0
		}
	],
	"images":[
		{
			"mimeType":"image/png",
			"name":"PlayerMuffler",
			"uri":"PlayerMuffler.png"
		}
	],
	"skins":[
		{
			"inverseBindMatrices":6,
			"joints":[
				8,
				7,
				6,
				5,
				4,
				3,
				2,
				1,
				0
			],
			"name":"\u30a2\u30fc\u30de\u30c1\u30e5\u30a2"
		}
	],
	"accessors":[
		{
			"bufferView":0,
			"componentType":5126,
			"count":104,
			"max":[
				0.19999998807907104,
				0.000637054443359375,
				0.01000000536441803
			],
			"min":[
				-0.19999998807907104,
				-1.9984078407287598,
				-0.01000000536441803
			],
			"type":"VEC3"
		},
		{
			"bufferView":1,
			"componentType":5126,
			"count":104,
			"type":"VEC2"
		},
		{
			"bufferView":2,
			"componentType":5126,
			"count":104,
			"type":"VEC3"
		},
		{
			"bufferView":3,
			"componentType":5121,
			"count":104,
			"type":"VEC4"
		},
		{
			"bufferView":4,
			"componentType":5126,
			"count":104,
			"type":"VEC4"
		},
		{
			"bufferView":5,
			"componentType":5123,
			"count":204,
			"type":"SCALAR"
		},
		{
			"bufferView":6,
			"componentType":5126,
			"count":9,
			"type":"MAT4"
		}
	],
	"bufferViews":[
		{
			"buffer":0,
			"byteLength":1248,
			"byteOffset":0,
			"target":34962
		},
		{
			"buffer":0,
			"byteLength":832,
			"byteOffset":1248,
			"target":34962
		},
		{
			"buffer":0,
			"byteLength":1248,
			"byteOffset":2080,
			"target":34962
		},
		{
			"buffer":0,
			"byteLength":416,
			"byteOffset":3328,
			"target":34962
		},
		{
			"buffer":0,
			"byteLength":1664,
			"byteOffset":3744,
			"target":34962
		},
		{
			"buffer":0,
			"byteLength":408,
			"byteOffset":5408,
			"target":34963
		},
		{
			"buffer":0,
			"byteLength":576,
			"byteOffset":5816
		}
	],
	"samplers":[
		{
			"magFilter":9729,
			"minFilter":9987
		}
	],
	"buffers":[
		{
			"byteLength":6392,
			"uri":"PlayerMuffler.bin"
		}
	]
}
