{
	"asset":{
		"generator":"Khronos glTF Blender I/O v3.5.30",
		"version":"2.0"
	},
	"scene":0,
	"scenes":[
		{
			"name":"Scene",
			"nodes":[
				0,
				1,
				2,
				3
			]
		}
	],
	"nodes":[
		{
			"name":"\u30a8\u30f3\u30d7\u30c6\u30a3",
			"rotation":[
				0.7071068286895752,
				0,
				0,
				0.7071068286895752
			],
			"translation":[
				0.6499999761581421,
				1.9688951969146729,
				0
			]
		},
		{
			"name":"\u30a8\u30f3\u30d7\u30c6\u30a3.001",
			"rotation":[
				0.5,
				0.5,
				-0.5,
				0.5
			],
			"translation":[
				0,
				1.9688951969146729,
				1.1800000667572021
			]
		},
		{
			"name":"\u30a8\u30f3\u30d7\u30c6\u30a3.002",
			"rotation":[
				0.5017423629760742,
				0.49825161695480347,
				-0.501742422580719,
				0.4982515871524811
			],
			"translation":[
				-0.38809192180633545,
				1.9631991386413574,
				1.1919060945510864
			]
		},
		{
			"mesh":0,
			"name":"Body",
			"translation":[
				0.0019080638885498047,
				0.03894925117492676,
				-0.0782766342163086
			]
		}
	],
	"materials":[
		{
			"doubleSided":true,
			"name":"\u30de\u30c6\u30ea\u30a2\u30eb",
			"pbrMetallicRoughness":{
				"baseColorTexture":{
					"index":0
				},
				"metallicFactor":0,
				"roughnessFactor":0.5
			}
		}
	],
	"meshes":[
		{
			"name":"\u7acb\u65b9\u4f53.001",
			"primitives":[
				{
					"attributes":{
						"POSITION":0,
						"TEXCOORD_0":1,
						"NORMAL":2
					},
					"indices":3,
					"material":0
				}
			]
		}
	],
	"textures":[
		{
			"sampler":0,
			"source":0
		}
	],
	"images":[
		{
			"mimeType":"image/png",
			"name":"Player",
			"uri":"Player.png"
		}
	],
	"accessors":[
		{
			"bufferView":0,
			"componentType":5126,
			"count":3468,
			"max":[
				1.4185885190963745,
				3.3115248680114746,
				0.36487913131713867
			],
			"min":[
				-1.4185885190963745,
				-0.028156617656350136,
				-0.19207152724266052
			],
			"type":"VEC3"
		},
		{
			"bufferView":1,
			"componentType":5126,
			"count":3468,
			"type":"VEC2"
		},
		{
			"bufferView":2,
			"componentType":5126,
			"count":3468,
			"type":"VEC3"
		},
		{
			"bufferView":3,
			"componentType":5123,
			"count":5376,
			"type":"SCALAR"
		}
	],
	"bufferViews":[
		{
			"buffer":0,
			"byteLength":41616,
			"byteOffset":0,
			"target":34962
		},
		{
			"buffer":0,
			"byteLength":27744,
			"byteOffset":41616,
			"target":34962
		},
		{
			"buffer":0,
			"byteLength":41616,
			"byteOffset":69360,
			"target":34962
		},
		{
			"buffer":0,
			"byteLength":10752,
			"byteOffset":110976,
			"target":34963
		}
	],
	"samplers":[
		{
			"magFilter":9729,
			"minFilter":9987
		}
	],
	"buffers":[
		{
			"byteLength":121728,
			"uri":"Player.bin"
		}
	]
}
