{
	"asset":{
		"generator":"Khronos glTF Blender I/O v3.5.30",
		"version":"2.0"
	},
	"scene":0,
	"scenes":[
		{
			"name":"Scene",
			"nodes":[
				9
			]
		}
	],
	"nodes":[
		{
			"name":"Bone.007",
			"rotation":[
				1.1546319456101628e-14,
				0,
				0,
				1
			],
			"scale":[
				0.9999999403953552,
				0.9999999403953552,
				0.9999999403953552
			],
			"translation":[
				0,
				0.9324002265930176,
				4.165539983259914e-14
			]
		},
		{
			"children":[
				0
			],
			"name":"Bone.006",
			"rotation":[
				2.220446049250313e-14,
				0,
				0,
				1
			],
			"scale":[
				0.9999999403953552,
				0.9999999403953552,
				0.9999999403953552
			],
			"translation":[
				0,
				1.0101008415222168,
				1.9452945114115106e-14
			]
		},
		{
			"children":[
				1
			],
			"name":"Bone.005",
			"rotation":[
				-3.375077994860476e-14,
				0,
				0,
				1
			],
			"scale":[
				0.9999999403953552,
				0.9999999403953552,
				0.9999999403953552
			],
			"translation":[
				0,
				0.9324004650115967,
				-1.8740705601955066e-14
			]
		},
		{
			"children":[
				2
			],
			"name":"Bone.004",
			"rotation":[
				4.707345285597485e-14,
				0,
				0,
				1
			],
			"scale":[
				1,
				0.9999998807907104,
				1
			],
			"translation":[
				0,
				1.010101079940796,
				-1.589476976687071e-14
			]
		},
		{
			"children":[
				3
			],
			"name":"Bone.003",
			"rotation":[
				-1.154631860906868e-14,
				0,
				0,
				1
			],
			"translation":[
				0,
				0.9324009418487549,
				-4.5740998879176265e-15
			]
		},
		{
			"children":[
				4
			],
			"name":"Bone.002",
			"rotation":[
				-2.3980813943771592e-14,
				0,
				0,
				1
			],
			"translation":[
				0,
				1.0101008415222168,
				-1.4569691752976816e-14
			]
		},
		{
			"children":[
				5
			],
			"name":"Bone.001",
			"rotation":[
				9.716579540963721e-08,
				0,
				0,
				1
			],
			"translation":[
				0,
				1,
				-2.842170943040401e-14
			]
		},
		{
			"children":[
				6
			],
			"name":"Bone",
			"rotation":[
				-7.105427357601002e-15,
				0,
				0,
				1
			]
		},
		{
			"mesh":0,
			"name":"\u5e73\u9762",
			"skin":0
		},
		{
			"children":[
				8,
				7
			],
			"name":"\u30a2\u30fc\u30de\u30c1\u30e5\u30a2",
			"rotation":[
				0,
				1,
				0,
				0
			],
			"scale":[
				-0.09999999403953552,
				-0.12870000302791595,
				-0.10000002384185791
			]
		}
	],
	"materials":[
		{
			"doubleSided":true,
			"name":"\u30de\u30c6\u30ea\u30a2\u30eb",
			"pbrMetallicRoughness":{
				"baseColorTexture":{
					"index":0
				},
				"metallicFactor":0,
				"roughnessFactor":0.5
			}
		}
	],
	"meshes":[
		{
			"name":"\u5e73\u9762",
			"primitives":[
				{
					"attributes":{
						"POSITION":0,
						"TEXCOORD_0":1,
						"NORMAL":2,
						"JOINTS_0":3,
						"WEIGHTS_0":4
					},
					"indices":5,
					"material":0
				}
			]
		}
	],
	"textures":[
		{
			"sampler":0,
			"source":0
		}
	],
	"images":[
		{
			"mimeType":"image/png",
			"name":"PlayerMuffler",
			"uri":"PlayerMuffler.png"
		}
	],
	"skins":[
		{
			"inverseBindMatrices":6,
			"joints":[
				7,
				6,
				5,
				4,
				3,
				2,
				1,
				0
			],
			"name":"\u30a2\u30fc\u30de\u30c1\u30e5\u30a2"
		}
	],
	"accessors":[
		{
			"bufferView":0,
			"componentType":5126,
			"count":1734,
			"max":[
				0.020000003278255463,
				0,
				0.0010000597685575485
			],
			"min":[
				-0.020000003278255463,
				-1,
				-0.001000058837234974
			],
			"type":"VEC3"
		},
		{
			"bufferView":1,
			"componentType":5126,
			"count":1734,
			"type":"VEC2"
		},
		{
			"bufferView":2,
			"componentType":5126,
			"count":1734,
			"type":"VEC3"
		},
		{
			"bufferView":3,
			"componentType":5121,
			"count":1734,
			"type":"VEC4"
		},
		{
			"bufferView":4,
			"componentType":5126,
			"count":1734,
			"type":"VEC4"
		},
		{
			"bufferView":5,
			"componentType":5123,
			"count":9216,
			"type":"SCALAR"
		},
		{
			"bufferView":6,
			"componentType":5126,
			"count":8,
			"type":"MAT4"
		}
	],
	"bufferViews":[
		{
			"buffer":0,
			"byteLength":20808,
			"byteOffset":0,
			"target":34962
		},
		{
			"buffer":0,
			"byteLength":13872,
			"byteOffset":20808,
			"target":34962
		},
		{
			"buffer":0,
			"byteLength":20808,
			"byteOffset":34680,
			"target":34962
		},
		{
			"buffer":0,
			"byteLength":6936,
			"byteOffset":55488,
			"target":34962
		},
		{
			"buffer":0,
			"byteLength":27744,
			"byteOffset":62424,
			"target":34962
		},
		{
			"buffer":0,
			"byteLength":18432,
			"byteOffset":90168,
			"target":34963
		},
		{
			"buffer":0,
			"byteLength":512,
			"byteOffset":108600
		}
	],
	"samplers":[
		{
			"magFilter":9729,
			"minFilter":9987
		}
	],
	"buffers":[
		{
			"byteLength":109112,
			"uri":"PlayerMuffler.bin"
		}
	]
}
